<mxfile host="65bd71144e">
    <diagram id="T8HcdlTuBkd5GBCXsAGR" name="PÃ¡gina-1">
        <mxGraphModel dx="793" dy="532" grid="1" gridSize="10" guides="1" tooltips="1" connect="1" arrows="1" fold="1" page="0" pageScale="1" pageWidth="827" pageHeight="1169" math="0" shadow="0">
            <root>
                <mxCell id="0"/>
                <mxCell id="1" parent="0"/>
                <mxCell id="oLbzxLvsJc64zMoSrJIi-4" value="&lt;font style=&quot;font-size: 23px&quot;&gt;Strider Backend Posterr Implementation&lt;/font&gt;" style="rounded=0;whiteSpace=wrap;html=1;" parent="1" vertex="1">
                    <mxGeometry x="280" y="130" width="960" height="70" as="geometry"/>
                </mxCell>
                <mxCell id="oLbzxLvsJc64zMoSrJIi-9" value="" style="endArrow=none;dashed=1;html=1;dashPattern=1 3;strokeWidth=2;" parent="1" edge="1">
                    <mxGeometry width="50" height="50" relative="1" as="geometry">
                        <mxPoint x="40" y="240" as="sourcePoint"/>
                        <mxPoint x="1530" y="240" as="targetPoint"/>
                    </mxGeometry>
                </mxCell>
                <mxCell id="oLbzxLvsJc64zMoSrJIi-11" value="&lt;span style=&quot;font-size: 17px&quot;&gt;Homepage&lt;/span&gt;" style="rounded=0;whiteSpace=wrap;html=1;" parent="1" vertex="1">
                    <mxGeometry x="40" y="260" width="200" height="60" as="geometry"/>
                </mxCell>
                <mxCell id="oLbzxLvsJc64zMoSrJIi-12" value="&lt;span style=&quot;font-size: 17px&quot;&gt;UserProfile&lt;/span&gt;" style="rounded=0;whiteSpace=wrap;html=1;" parent="1" vertex="1">
                    <mxGeometry x="345" y="260" width="200" height="60" as="geometry"/>
                </mxCell>
                <mxCell id="oLbzxLvsJc64zMoSrJIi-13" value="" style="endArrow=none;html=1;" parent="1" edge="1">
                    <mxGeometry width="50" height="50" relative="1" as="geometry">
                        <mxPoint x="280" y="600" as="sourcePoint"/>
                        <mxPoint x="280" y="250" as="targetPoint"/>
                    </mxGeometry>
                </mxCell>
                <mxCell id="oLbzxLvsJc64zMoSrJIi-14" value="Feed Posts (10 lasts posts)" style="rounded=1;whiteSpace=wrap;html=1;" parent="1" vertex="1">
                    <mxGeometry x="80" y="350" width="120" height="60" as="geometry"/>
                </mxCell>
                <mxCell id="oLbzxLvsJc64zMoSrJIi-15" value="Older posts on-demand" style="rounded=1;whiteSpace=wrap;html=1;" parent="1" vertex="1">
                    <mxGeometry x="80" y="420" width="120" height="60" as="geometry"/>
                </mxCell>
                <mxCell id="oLbzxLvsJc64zMoSrJIi-16" value="Can be AllPosts or just who you follow" style="rounded=1;whiteSpace=wrap;html=1;" parent="1" vertex="1">
                    <mxGeometry x="80" y="490" width="120" height="60" as="geometry"/>
                </mxCell>
                <mxCell id="oLbzxLvsJc64zMoSrJIi-18" value="Username" style="rounded=1;whiteSpace=wrap;html=1;" parent="1" vertex="1">
                    <mxGeometry x="320" y="350" width="120" height="60" as="geometry"/>
                </mxCell>
                <mxCell id="oLbzxLvsJc64zMoSrJIi-19" value="Date joined" style="rounded=1;whiteSpace=wrap;html=1;" parent="1" vertex="1">
                    <mxGeometry x="320" y="420" width="120" height="60" as="geometry"/>
                </mxCell>
                <mxCell id="oLbzxLvsJc64zMoSrJIi-20" value="Number following" style="rounded=1;whiteSpace=wrap;html=1;" parent="1" vertex="1">
                    <mxGeometry x="450" y="350" width="120" height="60" as="geometry"/>
                </mxCell>
                <mxCell id="oLbzxLvsJc64zMoSrJIi-21" value="Count of number of posts user made" style="rounded=1;whiteSpace=wrap;html=1;" parent="1" vertex="1">
                    <mxGeometry x="450" y="420" width="120" height="60" as="geometry"/>
                </mxCell>
                <mxCell id="oLbzxLvsJc64zMoSrJIi-22" value="Feed of posts the user gas made (latest 5 posts)" style="rounded=1;whiteSpace=wrap;html=1;" parent="1" vertex="1">
                    <mxGeometry x="320" y="490" width="120" height="60" as="geometry"/>
                </mxCell>
                <mxCell id="oLbzxLvsJc64zMoSrJIi-23" value="Follow/Unfollow actions" style="rounded=1;whiteSpace=wrap;html=1;" parent="1" vertex="1">
                    <mxGeometry x="320" y="560" width="120" height="60" as="geometry"/>
                </mxCell>
                <mxCell id="oLbzxLvsJc64zMoSrJIi-24" value="You follow the user or not" style="rounded=1;whiteSpace=wrap;html=1;" parent="1" vertex="1">
                    <mxGeometry x="450" y="490" width="120" height="60" as="geometry"/>
                </mxCell>
                <mxCell id="oLbzxLvsJc64zMoSrJIi-25" value="New Posts" style="rounded=1;whiteSpace=wrap;html=1;" parent="1" vertex="1">
                    <mxGeometry x="450" y="560" width="120" height="60" as="geometry"/>
                </mxCell>
                <mxCell id="oLbzxLvsJc64zMoSrJIi-26" value="&lt;span style=&quot;font-size: 17px&quot;&gt;Users&lt;/span&gt;" style="rounded=0;whiteSpace=wrap;html=1;" parent="1" vertex="1">
                    <mxGeometry x="665" y="270" width="200" height="60" as="geometry"/>
                </mxCell>
                <mxCell id="oLbzxLvsJc64zMoSrJIi-27" value="" style="endArrow=none;html=1;" parent="1" edge="1">
                    <mxGeometry width="50" height="50" relative="1" as="geometry">
                        <mxPoint x="600" y="600" as="sourcePoint"/>
                        <mxPoint x="600" y="250" as="targetPoint"/>
                    </mxGeometry>
                </mxCell>
                <mxCell id="oLbzxLvsJc64zMoSrJIi-28" value="Only aphanumeric" style="rounded=1;whiteSpace=wrap;html=1;" parent="1" vertex="1">
                    <mxGeometry x="640" y="360" width="120" height="60" as="geometry"/>
                </mxCell>
                <mxCell id="oLbzxLvsJc64zMoSrJIi-29" value="Do not build authentication" style="rounded=1;whiteSpace=wrap;html=1;" parent="1" vertex="1">
                    <mxGeometry x="640" y="430" width="120" height="60" as="geometry"/>
                </mxCell>
                <mxCell id="oLbzxLvsJc64zMoSrJIi-30" value="Maximum 14 characters" style="rounded=1;whiteSpace=wrap;html=1;" parent="1" vertex="1">
                    <mxGeometry x="770" y="360" width="120" height="60" as="geometry"/>
                </mxCell>
                <mxCell id="oLbzxLvsJc64zMoSrJIi-31" value="Do not build CRUD for users" style="rounded=1;whiteSpace=wrap;html=1;" parent="1" vertex="1">
                    <mxGeometry x="770" y="430" width="120" height="60" as="geometry"/>
                </mxCell>
                <mxCell id="oLbzxLvsJc64zMoSrJIi-32" value="When/if necessary to make your application function, you may hard-code the user. For example, you may need to do this to implement creating new posts, following, etc" style="rounded=1;whiteSpace=wrap;html=1;" parent="1" vertex="1">
                    <mxGeometry x="640" y="500" width="255" height="60" as="geometry"/>
                </mxCell>
                <mxCell id="oLbzxLvsJc64zMoSrJIi-36" value="" style="endArrow=none;html=1;" parent="1" edge="1">
                    <mxGeometry width="50" height="50" relative="1" as="geometry">
                        <mxPoint x="920" y="600" as="sourcePoint"/>
                        <mxPoint x="920" y="250" as="targetPoint"/>
                    </mxGeometry>
                </mxCell>
                <mxCell id="oLbzxLvsJc64zMoSrJIi-37" value="&lt;span style=&quot;font-size: 17px&quot;&gt;Posts&lt;/span&gt;" style="rounded=0;whiteSpace=wrap;html=1;" parent="1" vertex="1">
                    <mxGeometry x="985" y="270" width="200" height="60" as="geometry"/>
                </mxCell>
                <mxCell id="oLbzxLvsJc64zMoSrJIi-38" value="maximum of 777 characters" style="rounded=1;whiteSpace=wrap;html=1;" parent="1" vertex="1">
                    <mxGeometry x="960" y="360" width="120" height="60" as="geometry"/>
                </mxCell>
                <mxCell id="oLbzxLvsJc64zMoSrJIi-39" value="Reposting: Users can repost other users' posts (like Twitter Retweet)" style="rounded=1;whiteSpace=wrap;html=1;" parent="1" vertex="1">
                    <mxGeometry x="960" y="430" width="120" height="60" as="geometry"/>
                </mxCell>
                <mxCell id="oLbzxLvsJc64zMoSrJIi-40" value="Users cannot update or delete their posts" style="rounded=1;whiteSpace=wrap;html=1;" parent="1" vertex="1">
                    <mxGeometry x="1090" y="360" width="120" height="60" as="geometry"/>
                </mxCell>
                <mxCell id="oLbzxLvsJc64zMoSrJIi-41" value="Users can repost other user's posts and leave a comment&amp;nbsp;" style="rounded=1;whiteSpace=wrap;html=1;" parent="1" vertex="1">
                    <mxGeometry x="1090" y="430" width="120" height="60" as="geometry"/>
                </mxCell>
                <mxCell id="oLbzxLvsJc64zMoSrJIi-42" value="A user is not allowed to post more than 5 posts in one day (including reposts and quote posts)" style="rounded=1;whiteSpace=wrap;html=1;" parent="1" vertex="1">
                    <mxGeometry x="960" y="500" width="255" height="60" as="geometry"/>
                </mxCell>
                <mxCell id="oLbzxLvsJc64zMoSrJIi-43" value="" style="endArrow=none;html=1;" parent="1" edge="1">
                    <mxGeometry width="50" height="50" relative="1" as="geometry">
                        <mxPoint x="1240" y="590" as="sourcePoint"/>
                        <mxPoint x="1240" y="240" as="targetPoint"/>
                    </mxGeometry>
                </mxCell>
                <mxCell id="oLbzxLvsJc64zMoSrJIi-44" value="&lt;span style=&quot;font-size: 17px&quot;&gt;Following&lt;/span&gt;" style="rounded=0;whiteSpace=wrap;html=1;" parent="1" vertex="1">
                    <mxGeometry x="1305" y="270" width="200" height="60" as="geometry"/>
                </mxCell>
                <mxCell id="oLbzxLvsJc64zMoSrJIi-49" value="Following and unfollowing will be done only on the user profile page" style="rounded=1;whiteSpace=wrap;html=1;" parent="1" vertex="1">
                    <mxGeometry x="1280" y="500" width="255" height="60" as="geometry"/>
                </mxCell>
                <mxCell id="oLbzxLvsJc64zMoSrJIi-50" value="Users cannot follow themselves" style="rounded=1;whiteSpace=wrap;html=1;" parent="1" vertex="1">
                    <mxGeometry x="1277.5" y="430" width="255" height="60" as="geometry"/>
                </mxCell>
                <mxCell id="oLbzxLvsJc64zMoSrJIi-51" value="Users should be able to follow other users" style="rounded=1;whiteSpace=wrap;html=1;" parent="1" vertex="1">
                    <mxGeometry x="1277.5" y="360" width="255" height="60" as="geometry"/>
                </mxCell>
                <mxCell id="oLbzxLvsJc64zMoSrJIi-52" value="" style="endArrow=none;dashed=1;html=1;dashPattern=1 3;strokeWidth=2;" parent="1" edge="1">
                    <mxGeometry width="50" height="50" relative="1" as="geometry">
                        <mxPoint x="40" y="680" as="sourcePoint"/>
                        <mxPoint x="1529.9999999999995" y="680" as="targetPoint"/>
                    </mxGeometry>
                </mxCell>
                <mxCell id="oLbzxLvsJc64zMoSrJIi-53" value="&lt;font style=&quot;font-size: 23px&quot;&gt;Phase 1 - Coding ( 7 Hours )&lt;/font&gt;" style="rounded=0;whiteSpace=wrap;html=1;" parent="1" vertex="1">
                    <mxGeometry x="280" y="700" width="960" height="70" as="geometry"/>
                </mxCell>
                <mxCell id="oLbzxLvsJc64zMoSrJIi-54" value="Build out a RESTful API and corresponding backend system" style="rounded=0;whiteSpace=wrap;html=1;" parent="1" vertex="1">
                    <mxGeometry x="460" y="870" width="200" height="60" as="geometry"/>
                </mxCell>
                <mxCell id="oLbzxLvsJc64zMoSrJIi-55" value="Do not build a front-end." style="rounded=0;whiteSpace=wrap;html=1;" parent="1" vertex="1">
                    <mxGeometry x="360" y="800" width="200" height="60" as="geometry"/>
                </mxCell>
                <mxCell id="oLbzxLvsJc64zMoSrJIi-56" value="Write some automated tests for this project." style="rounded=0;whiteSpace=wrap;html=1;" parent="1" vertex="1">
                    <mxGeometry x="570" y="800" width="200" height="60" as="geometry"/>
                </mxCell>
                <mxCell id="oLbzxLvsJc64zMoSrJIi-57" value="You should implement a real, production-ready database, and queries should be performant." style="rounded=0;whiteSpace=wrap;html=1;" parent="1" vertex="1">
                    <mxGeometry x="675" y="870" width="200" height="60" as="geometry"/>
                </mxCell>
                <mxCell id="oLbzxLvsJc64zMoSrJIi-58" value="Do not implement additional features beyond what is explained in the overview." style="rounded=0;whiteSpace=wrap;html=1;" parent="1" vertex="1">
                    <mxGeometry x="780" y="800" width="200" height="60" as="geometry"/>
                </mxCell>
                <mxCell id="oLbzxLvsJc64zMoSrJIi-59" value="This API you build should enable all the features on both of the pages.&amp;nbsp;" style="rounded=0;whiteSpace=wrap;html=1;" parent="1" vertex="1">
                    <mxGeometry x="990" y="800" width="200" height="60" as="geometry"/>
                </mxCell>
                <mxCell id="oLbzxLvsJc64zMoSrJIi-60" value="You should implement a real, production-ready database, and queries should be performant." style="rounded=0;whiteSpace=wrap;html=1;" parent="1" vertex="1">
                    <mxGeometry x="890" y="870" width="200" height="60" as="geometry"/>
                </mxCell>
                <mxCell id="oLbzxLvsJc64zMoSrJIi-61" value="" style="endArrow=none;dashed=1;html=1;dashPattern=1 3;strokeWidth=2;" parent="1" edge="1">
                    <mxGeometry width="50" height="50" relative="1" as="geometry">
                        <mxPoint x="42.5" y="950" as="sourcePoint"/>
                        <mxPoint x="1532.4999999999995" y="950" as="targetPoint"/>
                    </mxGeometry>
                </mxCell>
                <mxCell id="oLbzxLvsJc64zMoSrJIi-62" value="&lt;span style=&quot;font-size: 23px&quot;&gt;Roadmap&lt;/span&gt;" style="rounded=0;whiteSpace=wrap;html=1;" parent="1" vertex="1">
                    <mxGeometry x="280" y="970" width="960" height="70" as="geometry"/>
                </mxCell>
                <mxCell id="oLbzxLvsJc64zMoSrJIi-99" style="edgeStyle=orthogonalEdgeStyle;rounded=0;orthogonalLoop=1;jettySize=auto;html=1;entryX=0;entryY=0.5;entryDx=0;entryDy=0;" parent="1" source="oLbzxLvsJc64zMoSrJIi-65" target="oLbzxLvsJc64zMoSrJIi-83" edge="1">
                    <mxGeometry relative="1" as="geometry"/>
                </mxCell>
                <mxCell id="oLbzxLvsJc64zMoSrJIi-65" value="USER" style="swimlane;startSize=0;" parent="1" vertex="1">
                    <mxGeometry x="110" y="1120" width="590" height="320" as="geometry">
                        <mxRectangle x="110" y="1120" width="70" height="20" as="alternateBounds"/>
                    </mxGeometry>
                </mxCell>
                <mxCell id="oLbzxLvsJc64zMoSrJIi-69" style="edgeStyle=orthogonalEdgeStyle;rounded=0;orthogonalLoop=1;jettySize=auto;html=1;entryX=0;entryY=0.5;entryDx=0;entryDy=0;" parent="oLbzxLvsJc64zMoSrJIi-65" source="oLbzxLvsJc64zMoSrJIi-67" target="oLbzxLvsJc64zMoSrJIi-68" edge="1">
                    <mxGeometry relative="1" as="geometry"/>
                </mxCell>
                <mxCell id="oLbzxLvsJc64zMoSrJIi-67" value="&lt;span&gt;Modeling Data User #001&lt;/span&gt;" style="rounded=1;whiteSpace=wrap;html=1;" parent="oLbzxLvsJc64zMoSrJIi-65" vertex="1">
                    <mxGeometry x="20" y="30" width="120" height="60" as="geometry"/>
                </mxCell>
                <mxCell id="oLbzxLvsJc64zMoSrJIi-71" style="edgeStyle=orthogonalEdgeStyle;rounded=0;orthogonalLoop=1;jettySize=auto;html=1;entryX=0;entryY=0.5;entryDx=0;entryDy=0;" parent="oLbzxLvsJc64zMoSrJIi-65" source="oLbzxLvsJc64zMoSrJIi-68" target="oLbzxLvsJc64zMoSrJIi-70" edge="1">
                    <mxGeometry relative="1" as="geometry"/>
                </mxCell>
                <mxCell id="oLbzxLvsJc64zMoSrJIi-68" value="Create the first healthchek route #002&amp;nbsp;" style="rounded=1;whiteSpace=wrap;html=1;" parent="oLbzxLvsJc64zMoSrJIi-65" vertex="1">
                    <mxGeometry x="160" y="30" width="120" height="60" as="geometry"/>
                </mxCell>
                <mxCell id="oLbzxLvsJc64zMoSrJIi-74" style="edgeStyle=orthogonalEdgeStyle;rounded=0;orthogonalLoop=1;jettySize=auto;html=1;entryX=0;entryY=0.5;entryDx=0;entryDy=0;" parent="oLbzxLvsJc64zMoSrJIi-65" source="oLbzxLvsJc64zMoSrJIi-70" edge="1">
                    <mxGeometry relative="1" as="geometry">
                        <mxPoint x="439.9999999999998" y="60" as="targetPoint"/>
                    </mxGeometry>
                </mxCell>
                <mxCell id="oLbzxLvsJc64zMoSrJIi-70" value="Endpoint for create User #003&amp;nbsp;" style="rounded=1;whiteSpace=wrap;html=1;" parent="oLbzxLvsJc64zMoSrJIi-65" vertex="1">
                    <mxGeometry x="300" y="30" width="120" height="60" as="geometry"/>
                </mxCell>
                <mxCell id="oLbzxLvsJc64zMoSrJIi-76" style="edgeStyle=orthogonalEdgeStyle;rounded=0;orthogonalLoop=1;jettySize=auto;html=1;entryX=0;entryY=0.5;entryDx=0;entryDy=0;" parent="oLbzxLvsJc64zMoSrJIi-65" source="oLbzxLvsJc64zMoSrJIi-73" target="oLbzxLvsJc64zMoSrJIi-75" edge="1">
                    <mxGeometry relative="1" as="geometry">
                        <Array as="points">
                            <mxPoint x="570" y="60"/>
                            <mxPoint x="570" y="110"/>
                            <mxPoint x="10" y="110"/>
                            <mxPoint x="10" y="150"/>
                        </Array>
                    </mxGeometry>
                </mxCell>
                <mxCell id="oLbzxLvsJc64zMoSrJIi-73" value="Tests for create User #004&amp;nbsp;" style="rounded=1;whiteSpace=wrap;html=1;" parent="oLbzxLvsJc64zMoSrJIi-65" vertex="1">
                    <mxGeometry x="440" y="30" width="120" height="60" as="geometry"/>
                </mxCell>
                <mxCell id="oLbzxLvsJc64zMoSrJIi-78" style="edgeStyle=orthogonalEdgeStyle;rounded=0;orthogonalLoop=1;jettySize=auto;html=1;entryX=0;entryY=0.5;entryDx=0;entryDy=0;" parent="oLbzxLvsJc64zMoSrJIi-65" source="oLbzxLvsJc64zMoSrJIi-75" target="oLbzxLvsJc64zMoSrJIi-77" edge="1">
                    <mxGeometry relative="1" as="geometry"/>
                </mxCell>
                <mxCell id="oLbzxLvsJc64zMoSrJIi-75" value="Endpoint for Get All Users and UserID #005&amp;nbsp;" style="rounded=1;whiteSpace=wrap;html=1;" parent="oLbzxLvsJc64zMoSrJIi-65" vertex="1">
                    <mxGeometry x="20" y="120" width="120" height="60" as="geometry"/>
                </mxCell>
                <mxCell id="oLbzxLvsJc64zMoSrJIi-80" style="edgeStyle=orthogonalEdgeStyle;rounded=0;orthogonalLoop=1;jettySize=auto;html=1;entryX=0;entryY=0.5;entryDx=0;entryDy=0;" parent="oLbzxLvsJc64zMoSrJIi-65" source="oLbzxLvsJc64zMoSrJIi-77" target="oLbzxLvsJc64zMoSrJIi-79" edge="1">
                    <mxGeometry relative="1" as="geometry"/>
                </mxCell>
                <mxCell id="oLbzxLvsJc64zMoSrJIi-77" value="Migration for N values of Users #006" style="rounded=1;whiteSpace=wrap;html=1;" parent="oLbzxLvsJc64zMoSrJIi-65" vertex="1">
                    <mxGeometry x="160" y="120" width="120" height="60" as="geometry"/>
                </mxCell>
                <mxCell id="oLbzxLvsJc64zMoSrJIi-82" style="edgeStyle=orthogonalEdgeStyle;rounded=0;orthogonalLoop=1;jettySize=auto;html=1;entryX=0;entryY=0.5;entryDx=0;entryDy=0;" parent="oLbzxLvsJc64zMoSrJIi-65" source="oLbzxLvsJc64zMoSrJIi-79" target="oLbzxLvsJc64zMoSrJIi-81" edge="1">
                    <mxGeometry relative="1" as="geometry"/>
                </mxCell>
                <mxCell id="oLbzxLvsJc64zMoSrJIi-79" value="Conclude Epic with Docker running with database working #007" style="rounded=1;whiteSpace=wrap;html=1;" parent="oLbzxLvsJc64zMoSrJIi-65" vertex="1">
                    <mxGeometry x="300" y="120" width="120" height="60" as="geometry"/>
                </mxCell>
                <mxCell id="oLbzxLvsJc64zMoSrJIi-81" value="Documentation API #008" style="rounded=1;whiteSpace=wrap;html=1;" parent="oLbzxLvsJc64zMoSrJIi-65" vertex="1">
                    <mxGeometry x="440" y="120" width="120" height="60" as="geometry"/>
                </mxCell>
                <mxCell id="oLbzxLvsJc64zMoSrJIi-83" value="POSTS" style="swimlane;startSize=0;" parent="1" vertex="1">
                    <mxGeometry x="800" y="1120" width="590" height="320" as="geometry">
                        <mxRectangle x="800" y="1120" width="70" height="20" as="alternateBounds"/>
                    </mxGeometry>
                </mxCell>
                <mxCell id="oLbzxLvsJc64zMoSrJIi-84" style="edgeStyle=orthogonalEdgeStyle;rounded=0;orthogonalLoop=1;jettySize=auto;html=1;entryX=0;entryY=0.5;entryDx=0;entryDy=0;" parent="oLbzxLvsJc64zMoSrJIi-83" source="oLbzxLvsJc64zMoSrJIi-85" target="oLbzxLvsJc64zMoSrJIi-87" edge="1">
                    <mxGeometry relative="1" as="geometry"/>
                </mxCell>
                <mxCell id="oLbzxLvsJc64zMoSrJIi-85" value="&lt;span&gt;Modeling Data User #001&lt;/span&gt;" style="rounded=1;whiteSpace=wrap;html=1;" parent="oLbzxLvsJc64zMoSrJIi-83" vertex="1">
                    <mxGeometry x="20" y="30" width="120" height="60" as="geometry"/>
                </mxCell>
                <mxCell id="oLbzxLvsJc64zMoSrJIi-86" style="edgeStyle=orthogonalEdgeStyle;rounded=0;orthogonalLoop=1;jettySize=auto;html=1;entryX=0;entryY=0.5;entryDx=0;entryDy=0;" parent="oLbzxLvsJc64zMoSrJIi-83" source="oLbzxLvsJc64zMoSrJIi-87" target="oLbzxLvsJc64zMoSrJIi-89" edge="1">
                    <mxGeometry relative="1" as="geometry"/>
                </mxCell>
                <mxCell id="oLbzxLvsJc64zMoSrJIi-87" value="Create the first healthchek route #002&amp;nbsp;" style="rounded=1;whiteSpace=wrap;html=1;" parent="oLbzxLvsJc64zMoSrJIi-83" vertex="1">
                    <mxGeometry x="160" y="30" width="120" height="60" as="geometry"/>
                </mxCell>
                <mxCell id="oLbzxLvsJc64zMoSrJIi-88" style="edgeStyle=orthogonalEdgeStyle;rounded=0;orthogonalLoop=1;jettySize=auto;html=1;entryX=0;entryY=0.5;entryDx=0;entryDy=0;" parent="oLbzxLvsJc64zMoSrJIi-83" source="oLbzxLvsJc64zMoSrJIi-89" edge="1">
                    <mxGeometry relative="1" as="geometry">
                        <mxPoint x="439.9999999999998" y="60" as="targetPoint"/>
                    </mxGeometry>
                </mxCell>
                <mxCell id="oLbzxLvsJc64zMoSrJIi-89" value="Endpoint for create User #003&amp;nbsp;" style="rounded=1;whiteSpace=wrap;html=1;" parent="oLbzxLvsJc64zMoSrJIi-83" vertex="1">
                    <mxGeometry x="300" y="30" width="120" height="60" as="geometry"/>
                </mxCell>
                <mxCell id="oLbzxLvsJc64zMoSrJIi-90" style="edgeStyle=orthogonalEdgeStyle;rounded=0;orthogonalLoop=1;jettySize=auto;html=1;entryX=0;entryY=0.5;entryDx=0;entryDy=0;" parent="oLbzxLvsJc64zMoSrJIi-83" source="oLbzxLvsJc64zMoSrJIi-91" target="oLbzxLvsJc64zMoSrJIi-93" edge="1">
                    <mxGeometry relative="1" as="geometry">
                        <Array as="points">
                            <mxPoint x="570" y="60"/>
                            <mxPoint x="570" y="110"/>
                            <mxPoint x="10" y="110"/>
                            <mxPoint x="10" y="150"/>
                        </Array>
                    </mxGeometry>
                </mxCell>
                <mxCell id="oLbzxLvsJc64zMoSrJIi-91" value="Tests for create User #004&amp;nbsp;" style="rounded=1;whiteSpace=wrap;html=1;" parent="oLbzxLvsJc64zMoSrJIi-83" vertex="1">
                    <mxGeometry x="440" y="30" width="120" height="60" as="geometry"/>
                </mxCell>
                <mxCell id="oLbzxLvsJc64zMoSrJIi-92" style="edgeStyle=orthogonalEdgeStyle;rounded=0;orthogonalLoop=1;jettySize=auto;html=1;entryX=0;entryY=0.5;entryDx=0;entryDy=0;" parent="oLbzxLvsJc64zMoSrJIi-83" source="oLbzxLvsJc64zMoSrJIi-93" target="oLbzxLvsJc64zMoSrJIi-95" edge="1">
                    <mxGeometry relative="1" as="geometry"/>
                </mxCell>
                <mxCell id="oLbzxLvsJc64zMoSrJIi-93" value="Tests for create User #005&amp;nbsp;" style="rounded=1;whiteSpace=wrap;html=1;" parent="oLbzxLvsJc64zMoSrJIi-83" vertex="1">
                    <mxGeometry x="20" y="120" width="120" height="60" as="geometry"/>
                </mxCell>
                <mxCell id="oLbzxLvsJc64zMoSrJIi-94" style="edgeStyle=orthogonalEdgeStyle;rounded=0;orthogonalLoop=1;jettySize=auto;html=1;entryX=0;entryY=0.5;entryDx=0;entryDy=0;" parent="oLbzxLvsJc64zMoSrJIi-83" source="oLbzxLvsJc64zMoSrJIi-95" target="oLbzxLvsJc64zMoSrJIi-97" edge="1">
                    <mxGeometry relative="1" as="geometry"/>
                </mxCell>
                <mxCell id="oLbzxLvsJc64zMoSrJIi-95" value="Migration for N values of Users #006" style="rounded=1;whiteSpace=wrap;html=1;" parent="oLbzxLvsJc64zMoSrJIi-83" vertex="1">
                    <mxGeometry x="160" y="120" width="120" height="60" as="geometry"/>
                </mxCell>
                <mxCell id="oLbzxLvsJc64zMoSrJIi-96" style="edgeStyle=orthogonalEdgeStyle;rounded=0;orthogonalLoop=1;jettySize=auto;html=1;entryX=0;entryY=0.5;entryDx=0;entryDy=0;" parent="oLbzxLvsJc64zMoSrJIi-83" source="oLbzxLvsJc64zMoSrJIi-97" target="oLbzxLvsJc64zMoSrJIi-98" edge="1">
                    <mxGeometry relative="1" as="geometry"/>
                </mxCell>
                <mxCell id="oLbzxLvsJc64zMoSrJIi-97" value="Conclude Epic with Docker running with database working #007" style="rounded=1;whiteSpace=wrap;html=1;" parent="oLbzxLvsJc64zMoSrJIi-83" vertex="1">
                    <mxGeometry x="300" y="120" width="120" height="60" as="geometry"/>
                </mxCell>
                <mxCell id="oLbzxLvsJc64zMoSrJIi-98" value="Documentation API #008" style="rounded=1;whiteSpace=wrap;html=1;" parent="oLbzxLvsJc64zMoSrJIi-83" vertex="1">
                    <mxGeometry x="440" y="120" width="120" height="60" as="geometry"/>
                </mxCell>
            </root>
        </mxGraphModel>
    </diagram>
</mxfile>